<svg width="170" height="72" viewBox="0 0 170 72" fill="none" xmlns="http://www.w3.org/2000/svg">
<g clip-path="url(#clip0_1_1715)">
<rect width="52.8" height="48" transform="translate(59 12)" fill="white"/>
<path d="M108.117 42.9355L109.789 42.9398C110.272 42.9409 111.001 42.7155 111.481 42.3038C111.133 41.0483 108.851 40.7577 107.904 40.7749L108.117 42.9355Z" fill="#FFCC00" stroke="#B79300" stroke-width="0.8"/>
<path d="M103.623 42.9495L103.553 49.1426L110.054 48.6435C111.063 48.4732 111.228 47.9611 111.254 47.3959L111.504 43.2156C111.504 43.2156 111.545 42.5605 111.508 42.3861C111.439 42.0584 111.19 41.9761 110.995 42.1751C110.752 42.424 110.137 42.8706 109.604 42.8663L103.623 42.9495Z" fill="#FFCC00" stroke="#B79300" stroke-width="0.8"/>
<path d="M62.6828 42.9606L61.0112 42.965C60.5282 42.9661 59.7987 42.7407 59.3196 42.3289C59.6673 41.0734 61.949 40.7829 62.8963 40.8L62.6828 42.9606Z" fill="#FFCC00" stroke="#B79300" stroke-width="0.8"/>
<path d="M67.1789 42.9751L67.2489 49.1682L60.7479 48.6692C59.7385 48.4988 59.5736 47.9868 59.5477 47.4216L59.2976 43.2412C59.2976 43.2412 59.2569 42.5861 59.2937 42.4117C59.3629 42.084 59.6121 42.0017 59.8067 42.2007C60.0501 42.4497 60.6647 42.8962 61.198 42.8919L67.1789 42.9751Z" fill="#FFCC00" stroke="#B79300" stroke-width="0.8"/>
<path fill-rule="evenodd" clip-rule="evenodd" d="M85.23 12.353C84.1454 12.353 83.1326 12.9359 82.5844 13.8755C79.4326 20.6625 77.9918 20.4459 70.9645 20.6661C69.8918 20.7019 68.9264 21.2846 68.4022 22.2003C67.8658 23.128 67.8541 24.2695 68.3786 25.1973C72.4879 31.2662 71.8032 32.4019 68.5929 38.4336C68.0924 39.3613 68.1163 40.4909 68.6524 41.4068C69.1887 42.3223 70.154 42.8934 71.2146 42.9291C78.7735 42.4084 79.2897 43.9412 83.1683 49.9344C83.7404 50.8264 84.6834 51.3496 85.7442 51.3375C86.793 51.3257 87.8165 50.7667 88.3647 49.8749C91.6473 43.2368 92.8348 43.126 99.7222 43.0841C100.807 43.072 101.808 42.4895 102.356 41.5618C102.892 40.6224 102.904 39.4691 102.38 38.5295C98.1509 32.4282 99.214 31.1936 102.368 24.9358C102.845 23.9965 102.797 22.8785 102.26 21.9864C100.03 23.3678 100.03 23.3676 102.26 21.9864C101.724 21.0826 100.759 20.5237 99.7103 20.4998C92.1093 20.9992 91.4763 19.9402 87.8758 13.8517C87.3276 12.9239 86.3146 12.3531 85.23 12.3531V12.353ZM85.242 15.4097C89.1302 21.996 91.3029 24.214 99.6386 23.5566C96.2497 30.2803 94.9589 33.3282 99.6982 40.0157C92.2244 40.0765 89.2581 40.9294 85.7442 48.2811V48.2814C81.5963 41.8381 79.6104 39.2137 71.2981 39.8734C74.7746 33.3418 75.6697 30.3528 71.0599 23.7231C78.6452 23.485 81.8453 22.9546 85.242 15.4098V15.4097Z" fill="#FFCC00"/>
<path fill-rule="evenodd" clip-rule="evenodd" d="M85.3288 14.7305C87.88 21.0564 91.2692 24.4738 99.6375 23.5561C96.2486 30.2798 94.9578 33.3277 99.6972 40.0152C92.2234 40.0761 89.2571 40.929 85.7432 48.2807V48.2809C81.5952 41.8377 79.6094 39.2132 71.2971 39.873C74.7735 33.3414 75.6686 30.3523 71.0588 23.7226C78.6442 23.4846 82.256 22.5777 85.3288 14.7306V14.7305Z" stroke="#B79300" stroke-width="0.8" stroke-linecap="round" stroke-linejoin="round"/>
<path d="M83.1911 42.1177C83.1911 42.1177 83.2122 42.1071 83.2439 42.0966C83.2861 42.0755 83.3388 42.0545 83.4127 42.0124C83.5709 41.9387 83.7925 41.8229 84.0668 41.665C84.3516 41.507 84.6787 41.2965 85.0585 41.0438C85.4277 40.7912 85.8392 40.4859 86.2506 40.1174C86.6726 39.7489 87.0946 39.3278 87.506 38.854C87.9069 38.3698 88.2973 37.8223 88.6138 37.2222C88.9303 36.6116 89.1835 35.9484 89.3417 35.2535C89.3628 35.1693 89.3839 35.0746 89.3945 34.9903L89.4367 34.7272C89.4683 34.5482 89.4789 34.3692 89.5 34.1902L89.5105 34.0534V34.0218C89.5105 34.0112 89.5105 34.0218 89.5105 34.0218V34.0112V33.9902V33.9165L89.5211 33.6322C89.5316 33.4427 89.5211 33.2638 89.5211 33.0743C89.5105 32.3373 89.4367 31.5898 89.3312 30.8634C89.2257 30.137 89.0674 29.4211 88.8986 28.7368C88.5505 27.3682 88.1179 26.1259 87.7065 25.0731C87.2951 24.0203 86.8942 23.1571 86.6093 22.5675C86.4616 22.2727 86.3456 22.0411 86.2612 21.8832C86.1768 21.7253 86.1346 21.6411 86.1346 21.6411L86.4194 21.4832C86.4194 21.4832 86.4616 21.5674 86.5566 21.7253C86.641 21.8832 86.7676 22.1148 86.9153 22.4096C87.2212 22.9992 87.6326 23.8624 88.0757 24.9152C88.5188 25.968 88.983 27.2313 89.3628 28.6105C89.7426 29.9896 90.038 31.5056 90.0908 33.0532C90.0908 33.2427 90.1013 33.4533 90.1013 33.6322V33.9165V33.9902V34.0112V34.0323V34.0639L90.0908 34.2113C90.0802 34.4113 90.0697 34.6008 90.038 34.7903L89.9958 35.0746C89.9747 35.1693 89.9536 35.2641 89.9431 35.3588C89.7848 36.1168 89.5316 36.8432 89.194 37.5065C88.8564 38.1592 88.4555 38.7593 88.0335 39.2857C87.6115 39.8121 87.1684 40.2648 86.7359 40.6543C86.3034 41.0438 85.8814 41.3807 85.491 41.6544C85.1007 41.9282 84.7525 42.1493 84.4571 42.3282C84.1617 42.5072 83.9296 42.6335 83.7608 42.7178C83.6764 42.7599 83.6131 42.7914 83.5709 42.8125C83.5287 42.8336 83.4971 42.8441 83.4971 42.8441L83.4654 42.823C83.2544 42.6862 83.1384 42.4019 83.1911 42.1177H83.1911Z" fill="#FFCC00" stroke="#B79300" stroke-width="0.8" stroke-miterlimit="10" stroke-linejoin="round"/>
<path fill-rule="evenodd" clip-rule="evenodd" d="M85.23 12.3529C84.1455 12.3529 83.1327 12.9357 82.5844 13.8753C79.4326 20.6623 77.9918 20.4457 70.9645 20.6659C69.8918 20.7017 68.9264 21.2843 68.4022 22.2C67.8658 23.1278 67.8541 24.2693 68.3786 25.1971C72.4879 31.266 71.8032 32.4017 68.5929 38.4334C68.0924 39.3611 68.1163 40.4907 68.6524 41.4067C69.1887 42.3221 70.154 42.8932 71.2145 42.9289C78.7735 42.4082 79.2897 43.9411 83.1683 49.9342C83.7404 50.8263 84.7296 51.3494 85.7905 51.3373C86.8392 51.3255 87.8165 50.7665 88.3647 49.8747C91.6473 43.2366 92.8348 43.1258 99.7222 43.0839C100.807 43.0718 101.808 42.4892 102.356 41.5615C102.892 40.6221 102.904 39.4689 102.38 38.5294C98.151 32.4281 99.2141 31.1935 102.368 24.9357C102.845 23.9964 102.797 22.8784 102.261 21.9863V21.986C101.725 21.0822 100.759 20.5233 99.7103 20.4994C92.1094 20.9988 91.4763 19.9398 87.8758 13.8513C87.3276 12.9235 86.3146 12.3528 85.23 12.3528V12.3529Z" stroke="#B79300" stroke-width="0.8"/>
<path d="M83.7393 38.8447V46.0236H85.3851H87.0414V38.8447H83.7393Z" fill="#FFCC00" stroke="#B79300" stroke-width="0.8" stroke-miterlimit="10"/>
<path d="M87.0279 40.6941L83.7786 41.9048L83.8348 42.1072L87.0279 40.9152V40.6941Z" fill="#B79300"/>
<path d="M83.7615 41.0748L87.0003 39.8642V39.6431L83.7615 40.8538V41.0748Z" fill="#B79300"/>
<path d="M81.4717 17.408C81.4717 17.408 86.052 18.4377 86.2502 22.5337L81.4717 17.408Z" fill="#FFCC00"/>
<path d="M81.4717 17.408C81.4717 17.408 86.052 18.4377 86.2502 22.5337" stroke="#B79300" stroke-width="0.8" stroke-miterlimit="10"/>
<path d="M86.2508 22.5337C86.2508 22.5376 86.2508 22.5416 86.2518 22.5455C86.2412 22.535 83.34 23.1667 81.4727 17.408" fill="#B79300"/>
<path d="M86.2508 22.5337C86.2508 22.5376 86.2508 22.5416 86.2518 22.5455C86.2412 22.535 83.34 23.1667 81.4727 17.408" stroke="#B79300" stroke-width="0.8" stroke-miterlimit="10"/>
<path d="M81.4717 17.408C83.2975 19.2714 84.5587 20.9453 86.0187 22.356L86.2508 22.535" stroke="#B79300" stroke-width="0.8" stroke-miterlimit="10"/>
<path d="M84.4149 17.3134L85.396 14.6467V38.3657H83.7397V32.5366V21.1666C83.7397 19.8506 83.9718 18.5557 84.4149 17.3134H84.4149Z" fill="#FFCC00"/>
<path d="M86.3776 17.3134L85.3965 14.6467V38.3657H87.0528V32.5366V21.1666C87.0528 19.8506 86.8207 18.5557 86.3776 17.3134H86.3776Z" fill="#B79300"/>
<path d="M87.0284 44.8064L83.7393 46.0229V46.2545L87.0284 45.038V44.8064Z" fill="#B79300"/>
<path d="M87.559 46.9806H83.2335C83.0331 46.9806 82.8643 46.8121 82.8643 46.6121V46.012C82.8643 45.812 83.0331 45.6436 83.2335 45.6436H87.559C87.7594 45.6436 87.9282 45.812 87.9282 46.012V46.6121C87.9282 46.8121 87.7594 46.9806 87.559 46.9806Z" fill="#FFCC00" stroke="#B79300" stroke-width="0.8" stroke-miterlimit="10"/>
<path d="M87.0296 43.7534L83.7751 44.9689V45.2005L87.0296 43.985V43.7534Z" fill="#B79300"/>
<path d="M87.0291 42.7307L83.7717 43.9392V44.1708L87.0291 42.9623V42.7307Z" fill="#B79300"/>
<path d="M87.0287 41.7219L83.7639 42.9386V43.1597L87.0287 41.943V41.7219Z" fill="#B79300"/>
<path d="M85.3958 37.674V14.6934" stroke="#B79300" stroke-width="0.8" stroke-miterlimit="10" stroke-linecap="round" stroke-linejoin="round"/>
<path d="M90.3894 33.6657C90.354 33.676 90.3182 33.6859 90.2821 33.6956C90.2821 33.6956 90.177 29.6265 93.5645 27.3918" fill="#FFCC00"/>
<path d="M90.3894 33.6657C90.354 33.676 90.3182 33.686 90.2821 33.6956C90.2821 33.6956 90.177 29.6265 93.5645 27.3918" stroke="#B79300" stroke-width="0.8" stroke-miterlimit="10"/>
<path d="M93.5631 27.3916C93.5697 27.3873 93.5762 27.383 93.5828 27.3787C93.5861 27.4035 94.2978 32.5284 90.3879 33.6655" fill="#B79300"/>
<path d="M93.5631 27.3916C93.5697 27.3873 93.5762 27.383 93.5828 27.3787C93.5861 27.4035 94.2978 32.5284 90.3879 33.6655" stroke="#B79300" stroke-width="0.8" stroke-miterlimit="10"/>
<path d="M89.9326 19.3032C89.9326 19.3032 92.3064 25.3567 88.9832 27.4623L89.9326 19.3032Z" fill="#B79300"/>
<path d="M89.9326 19.3032C89.9326 19.3032 92.3064 25.3567 88.9832 27.4623" stroke="#B79300" stroke-width="0.8" stroke-miterlimit="10"/>
<path d="M88.9835 27.4623C88.9835 27.4623 87.1057 21.9562 89.933 19.3032L88.9835 27.4623Z" fill="#FFCC00"/>
<path d="M88.9835 27.4623C88.9835 27.4623 87.1057 21.9562 89.933 19.3032" stroke="#B79300" stroke-width="0.8" stroke-miterlimit="10"/>
<path d="M94.5283 34.2341C94.4751 34.8087 93.8879 38.9448 87.5916 39.8326L94.5283 34.2341Z" fill="#B79300"/>
<path d="M94.5283 34.2341C94.4751 34.8087 93.8879 38.9448 87.5916 39.8326" stroke="#B79300" stroke-width="0.8" stroke-miterlimit="10"/>
<path d="M85.3589 14.8279L84.4147 17.3135C83.9716 18.5558 83.7395 19.8507 83.7395 21.1667V32.5367V38.3659H85.3957H87.052V32.5367V21.1667C87.052 19.8507 86.8199 18.5558 86.3768 17.3135L85.3589 14.8279Z" stroke="#B79300" stroke-width="0.8" stroke-miterlimit="10"/>
<path d="M82.0735 28.042C84.711 30.2489 87.2594 31.9198 89.7643 33.8849" stroke="black" stroke-width="0.8" stroke-miterlimit="10"/>
<path d="M82.0735 28.042C82.0735 28.042 88.0342 28.6526 89.7539 33.7586C89.7539 33.7579 89.7331 33.7599 89.6936 33.7626" fill="#FFCC00"/>
<path d="M82.0735 28.042C82.0735 28.042 88.0342 28.6526 89.7539 33.7586C89.7539 33.7579 89.7331 33.7599 89.6936 33.7626" stroke="#B79300" stroke-width="0.8" stroke-miterlimit="10"/>
<path d="M89.6937 33.7626C89.1006 33.8035 84.2793 34.0139 82.0735 28.042L89.6937 33.7626Z" fill="#B79300"/>
<path d="M89.6937 33.7626C89.1006 33.8035 84.2793 34.0139 82.0735 28.042" stroke="#B79300" stroke-width="0.8" stroke-miterlimit="10"/>
<path d="M82.0735 28.042C84.7111 30.2489 87.2595 31.9198 89.7644 33.8849" stroke="#B79300" stroke-width="0.8" stroke-miterlimit="10"/>
<path d="M93.5731 27.3784C92.4671 29.6509 91.4403 31.757 90.2815 33.8846" stroke="#B79300" stroke-width="0.8" stroke-miterlimit="10"/>
<path d="M87.5916 39.8321C87.5916 39.8321 92.5246 35.9223 94.5238 34.2788" stroke="#B79300" stroke-width="0.8" stroke-miterlimit="10"/>
<path d="M88.5611 27.567C86.2979 26.1177 84.0462 24.7297 82.1995 22.7664" stroke="black" stroke-width="0.8" stroke-miterlimit="10"/>
<path d="M89.9326 19.3032C89.6777 22.0518 89.3324 24.8908 88.9832 27.1991V27.4623" stroke="#B79300" stroke-width="0.8" stroke-miterlimit="10"/>
<path fill-rule="evenodd" clip-rule="evenodd" d="M67.3524 42.95L63.5596 48.8874C69.2234 56.1935 76.1253 59.7912 85.3779 59.7261C94.6306 59.7912 101.533 56.1935 107.197 48.8874L103.404 42.95C100.594 49.1285 93.5377 53.6719 85.3779 53.6419C77.2183 53.6718 70.1619 49.1284 67.3524 42.95Z" fill="#FFCC00" stroke="#B79300" stroke-width="0.8" stroke-linecap="round" stroke-linejoin="round"/>
<path d="M88.3757 27.5011C87.8468 27.6407 83.71 28.1845 82.0288 22.5781L88.3757 27.5011Z" fill="#B79300"/>
<path d="M88.3757 27.5011C87.8468 27.6407 83.71 28.1845 82.0288 22.5781" stroke="#B79300" stroke-width="0.8" stroke-miterlimit="10"/>
<path d="M82.0288 22.5781C82.0288 22.5781 86.9936 23.1036 88.4259 27.4976C88.4259 27.497 88.4086 27.4987 88.3757 27.5011" fill="#FFCC00"/>
<path d="M82.0288 22.5781C82.0288 22.5781 86.9936 23.1036 88.4259 27.4976C88.4259 27.497 88.4086 27.4987 88.3757 27.5011" stroke="#B79300" stroke-width="0.8" stroke-miterlimit="10"/>
<path d="M82.0288 22.5781C84.2257 24.4773 86.3483 25.9152 88.4347 27.6063" stroke="#B79300" stroke-width="0.8" stroke-miterlimit="10"/>
<path d="M85.396 39.5484L83.75 39.9801L81.4819 38.5693L85.396 38.5952" fill="#B79300"/>
<path d="M85.396 39.5484L83.75 39.9801L81.4819 38.5693L85.396 38.5952" stroke="#B79300" stroke-width="0.8" stroke-miterlimit="10" stroke-linecap="round" stroke-linejoin="round"/>
<path d="M85.3962 39.5493L87.2107 39.981L89.0762 38.5718L85.3962 38.5961" fill="#B79300"/>
<path d="M85.3962 39.5493L87.2107 39.981L89.0762 38.5718L85.3962 38.5961" stroke="#B79300" stroke-width="0.8" stroke-miterlimit="10" stroke-linecap="round" stroke-linejoin="round"/>
<path d="M81.5261 38.5691H88.4002" stroke="black" stroke-width="0.8" stroke-miterlimit="10"/>
<path d="M85.3962 38.5953L89.0762 38.571L87.0524 37.0588L85.3962 37.4905" fill="#FFCC00"/>
<path d="M85.3962 38.5953L89.0762 38.571L87.0524 37.0588L85.3962 37.4905" stroke="#B79300" stroke-width="0.8" stroke-miterlimit="10" stroke-linecap="round" stroke-linejoin="round"/>
<path d="M85.396 38.5953L81.4819 38.5694L83.7395 37.0588L85.396 37.4905" fill="#FFCC00"/>
<path d="M85.396 38.5953L81.4819 38.5694L83.7395 37.0588L85.396 37.4905" stroke="#B79300" stroke-width="0.8" stroke-miterlimit="10" stroke-linecap="round" stroke-linejoin="round"/>
<path d="M87.5913 39.8322C87.5659 39.8259 90.0234 35.0092 94.5331 34.1682C94.5331 34.1726 94.5317 34.1951 94.528 34.2338" fill="#FFCC00"/>
<path d="M87.5913 39.8322C87.5659 39.8259 90.0234 35.0092 94.5331 34.1682C94.5331 34.1726 94.5317 34.1951 94.528 34.2338" stroke="#B79300" stroke-width="0.8" stroke-miterlimit="10"/>
<path d="M83.1911 42.1165C83.1911 42.1165 83.2122 42.106 83.2439 42.0955C83.2861 42.0744 83.3388 42.0534 83.4127 42.0113C83.5709 41.9376 83.7925 41.8218 84.0668 41.6639C84.3516 41.5059 84.6787 41.2954 85.0585 41.0427C85.4277 40.79 85.8392 40.4847 86.2506 40.1163C86.6726 39.7478 87.0946 39.3267 87.506 38.8529C87.9069 38.3686 88.2973 37.8212 88.6138 37.2211C88.9303 36.6105 89.1835 35.9472 89.3417 35.2524C89.3628 35.1682 89.3839 35.0734 89.3945 34.9892L89.4367 34.726C89.4683 34.5471 89.4789 34.3681 89.5 34.1891L89.5105 34.0522V34.0206C89.5105 34.0101 89.5105 34.0206 89.5105 34.0206V34.0101V33.989V33.9154L89.5211 33.6311C89.5316 33.4416 89.5211 33.2626 89.5211 33.0731C89.5105 32.3362 89.4367 31.5887 89.3312 30.8623C89.2257 30.1359 88.9676 29.0667 88.7988 28.3824L89.263 28.2561C89.6428 29.6352 90.038 31.5045 90.0908 33.0521C90.0908 33.2416 90.1013 33.4521 90.1013 33.6311V33.9154V33.989V34.0101V34.0312V34.0628L90.0908 34.2102C90.0802 34.4102 90.0697 34.5997 90.038 34.7892L89.9958 35.0734C89.9747 35.1682 89.9536 35.2629 89.9431 35.3577C89.7848 36.1157 89.5316 36.8421 89.194 37.5054C88.8564 38.1581 88.4555 38.7582 88.0335 39.2846C87.6115 39.811 87.1684 40.2637 86.7359 40.6532C86.3034 41.0427 85.8814 41.3796 85.491 41.6533C85.1007 41.927 84.7525 42.1481 84.4571 42.3271C84.1617 42.5061 83.9296 42.6324 83.7608 42.7166C83.6764 42.7587 83.6131 42.7903 83.5709 42.8114C83.5287 42.8324 83.4971 42.843 83.4971 42.843L83.4654 42.8219C83.2544 42.6851 83.1384 42.4008 83.1911 42.1165H83.1911Z" fill="#B79300" stroke="#B79300" stroke-width="0.8" stroke-miterlimit="10" stroke-linejoin="round"/>
<path d="M88.8771 27.1463C89.183 27.1463 89.4362 27.399 89.4362 27.7043C89.4362 28.0096 89.183 28.2623 88.8771 28.2623C88.5711 28.2623 88.3179 28.0096 88.3179 27.7043C88.3179 27.399 88.5711 27.1463 88.8771 27.1463ZM88.8771 26.9358C88.4445 26.9358 88.1069 27.2832 88.1069 27.7043C88.1069 28.136 88.4551 28.4728 88.8771 28.4728C89.2991 28.4728 89.6472 28.1254 89.6472 27.7043C89.6472 27.2832 89.3096 26.9358 88.8771 26.9358Z" fill="#B79300"/>
<path d="M88.8773 28.3783C88.508 28.3783 88.2126 28.0835 88.2126 27.715C88.2126 27.3465 88.508 27.0518 88.8773 27.0518C89.2465 27.0518 89.5419 27.3465 89.5419 27.715C89.5419 28.0835 89.2465 28.3783 88.8773 28.3783Z" fill="url(#paint0_radial_1_1715)"/>
<path d="M89.7535 33.2953C90.0806 33.2953 90.3548 33.5585 90.3548 33.8954C90.3548 34.2217 90.0911 34.4954 89.7535 34.4954C89.4265 34.4954 89.1522 34.2322 89.1522 33.8954C89.1627 33.5585 89.4265 33.2953 89.7535 33.2953ZM89.7535 33.0847C89.3104 33.0847 88.9412 33.4427 88.9412 33.8954C88.9412 34.3375 89.2999 34.706 89.7535 34.706C90.1966 34.706 90.5659 34.3481 90.5659 33.8954C90.5659 33.4427 90.2072 33.0847 89.7535 33.0847Z" fill="#B79300"/>
<path d="M89.7532 34.5904C89.3629 34.5904 89.0464 34.2746 89.0464 33.885C89.0464 33.4955 89.3629 33.1797 89.7532 33.1797C90.1436 33.1797 90.4601 33.4955 90.4601 33.885C90.4601 34.2746 90.1436 34.5904 89.7532 34.5904Z" fill="url(#paint1_radial_1_1715)"/>
<path d="M87.4948 57.2227C87.7074 57.2012 87.9198 57.1773 88.132 57.1511C88.4357 57.1135 88.5542 56.9853 88.475 56.6949C88.4054 56.4397 88.3368 56.1843 88.2692 55.9287C88.2576 55.8915 88.2302 55.8756 88.187 55.8808C87.9748 55.906 87.7623 55.9288 87.5495 55.9493C87.6431 55.6831 87.7333 55.4165 87.8202 55.1495C88.1219 55.1167 88.4228 55.079 88.7227 55.0361C88.8081 55.0239 88.8681 55.0307 88.9029 55.0572C88.9392 55.0817 88.9701 55.1377 88.9957 55.2254C89.2196 55.9854 89.4529 56.7431 89.6957 57.4983C89.4358 57.6493 89.1722 57.7966 88.9051 57.9402C88.8091 57.6669 88.7148 57.3931 88.6221 57.1189C88.5194 57.3923 88.4129 57.6652 88.3027 57.9375C87.955 57.98 87.607 58.0162 87.2588 58.0464C87.3401 57.7722 87.4188 57.4976 87.4948 57.2227Z" fill="#B79300"/>
<path d="M78.7475 53.8012C78.4948 53.856 78.2391 53.9052 77.9805 53.9482C77.8669 54.2696 77.7532 54.591 77.6395 54.9123C77.6238 54.9362 77.6313 54.9536 77.6623 54.9643C78.118 55.1223 78.5802 55.2619 79.0475 55.3843L78.7092 56.6702C78.4387 56.5991 78.1695 56.5226 77.9018 56.4404C77.7388 56.6464 77.5727 56.8508 77.4033 57.0533C77.9348 57.2246 78.4715 57.3743 79.0119 57.5036C79.2063 57.3497 79.3971 57.1931 79.5842 57.0342L80.0161 55.04C80.0484 54.8909 79.9748 54.8205 79.8595 54.7945C79.4176 54.6949 78.9805 54.58 78.5494 54.4489C78.6155 54.233 78.6815 54.0171 78.7475 53.8012Z" fill="#B79300"/>
<path d="M97.3033 52.4167C97.3565 52.1791 97.4051 51.9419 97.4492 51.7052C98.0916 51.8997 98.7538 52.0658 99.4324 52.2036C99.466 52.2068 99.4732 52.1948 99.4531 52.1687C99.3243 51.9972 99.1955 51.8256 99.0668 51.6541C98.969 51.7272 98.8707 51.7995 98.7719 51.8711C98.7012 51.607 98.6275 51.3442 98.5508 51.0828C98.636 51.0195 98.7207 50.9554 98.8051 50.8908C98.89 50.8257 98.9746 50.7599 99.0587 50.6935C99.1704 50.6054 99.2721 50.6199 99.3645 50.74C99.5683 51.0025 99.7719 51.265 99.9753 51.5277C100.015 51.5826 100.022 51.6338 99.9962 51.6813C99.894 51.8691 99.7887 52.0562 99.6803 52.2425C100.073 52.3235 100.472 52.3951 100.876 52.4575C100.784 52.7032 100.687 52.9488 100.586 53.1942C99.8357 53.0656 99.1027 52.9051 98.391 52.7122C98.3511 52.7035 98.3411 52.7143 98.3616 52.7445C98.5189 52.9819 98.6761 53.2193 98.8333 53.4567C98.9549 53.3755 99.0758 53.2931 99.1959 53.2097C99.2892 53.441 99.381 53.673 99.4713 53.9058C99.1901 54.098 98.9048 54.2845 98.6153 54.4652C98.5718 54.4923 98.534 54.4799 98.502 54.4284L97.8136 53.3223C97.7815 53.2707 97.7788 53.2295 97.8055 53.1986C97.8997 53.0154 97.9907 52.8318 98.0785 52.6479C97.8171 52.5753 97.5586 52.4982 97.3033 52.4167L97.3033 52.4167Z" fill="#B79300"/>
<path d="M93.206 56.9984L92.777 55.6126L92.7546 55.5405C92.7573 55.5251 92.7724 55.5078 92.7998 55.4883C93.0392 55.3493 93.2752 55.2064 93.5074 55.0596L93.9901 56.4303C93.7338 56.624 93.4723 56.8134 93.206 56.9984Z" fill="#B79300"/>
<path d="M92.5515 54.1721C92.8212 54.0862 93.0888 53.995 93.3542 53.8984C93.7065 53.7702 94.0548 53.6323 94.3987 53.4846C94.6333 53.3837 94.8048 53.448 94.9134 53.6879L95.8253 55.7008C95.5719 55.922 95.3122 56.1384 95.0467 56.35L94.2827 54.4497C94.2626 54.3997 94.2188 54.3884 94.1512 54.415C93.6284 54.6214 93.0972 54.8067 92.5593 54.9719C92.5594 54.7049 92.5568 54.4383 92.5515 54.1721Z" fill="#B79300"/>
<path d="M89.9939 57.7708L89.7424 56.3389L89.7293 56.2644C89.7339 56.2495 89.7511 56.2341 89.7808 56.2182C90.0361 56.1102 90.2888 55.9984 90.5386 55.883L90.8385 57.3071C90.561 57.4661 90.2794 57.6206 89.9939 57.7708Z" fill="#B79300"/>
<path d="M89.7009 54.8781C89.9817 54.8268 90.2613 54.7708 90.5394 54.7098C90.9086 54.6289 91.2752 54.5394 91.6388 54.4408C91.887 54.3735 92.0482 54.4616 92.1218 54.7138L92.7401 56.8317C92.461 57.0152 92.1769 57.1939 91.8881 57.3677L91.3893 55.3808C91.3762 55.3285 91.3342 55.3113 91.2635 55.3287C90.716 55.4627 90.163 55.5776 89.6062 55.6744C89.6402 55.4088 89.6717 55.1434 89.7009 54.8781Z" fill="#B79300"/>
<path d="M99.6962 50.1722C99.8036 50.4166 99.9088 50.6623 100.012 50.9093C100.351 50.6279 100.682 50.337 101.006 50.0375C101.023 50.0219 101.039 50.0064 101.056 49.9908C101.101 49.9493 101.143 49.9493 101.182 49.9913L101.712 50.5549C101.858 50.7099 101.977 50.8317 102.064 50.9131C101.684 51.268 101.294 51.612 100.894 51.944C100.972 52.1876 101.047 52.4325 101.119 52.6786C101.864 52.0757 102.574 51.4328 103.248 50.7566C103.16 50.5091 103.069 50.263 102.975 50.0186C102.858 50.1396 102.739 50.2596 102.619 50.3785C102.314 50.6804 102.623 50.1873 102.391 49.9563L101.376 48.9477C101.262 48.8345 101.134 48.8498 101.045 48.9371C100.61 49.366 100.16 49.7785 99.6962 50.1722L99.6962 50.1722Z" fill="#B79300"/>
<path d="M103.466 50.5345C103.378 50.2954 103.287 50.0578 103.193 49.8217C103.556 49.441 103.907 49.0503 104.247 48.6507C103.982 48.7014 103.576 48.7119 103.105 48.7312C102.975 48.7343 102.727 48.7165 102.377 48.67C102.264 48.7912 102.15 48.9114 102.035 49.0305C101.937 48.763 101.836 48.4974 101.732 48.2339C101.886 48.07 102.038 47.904 102.188 47.7361C102.223 47.697 102.273 47.6923 102.338 47.7221C102.624 47.8459 102.911 47.9133 103.198 47.9219C103.353 47.9246 103.574 47.9126 103.856 47.8813C103.916 47.8777 103.919 47.854 103.867 47.8108L103.441 47.4596C103.377 47.5367 103.313 47.6134 103.248 47.6898C103.121 47.4436 102.991 47.1994 102.859 46.957C102.997 46.7913 103.132 46.624 103.266 46.4552C103.358 46.3386 103.463 46.327 103.581 46.4224C103.828 46.6265 104.075 46.8308 104.322 47.0354C104.256 47.3084 104.186 47.5819 104.111 47.8558C104.403 47.8242 104.736 47.7806 105.078 47.6941C105.165 47.9353 105.249 48.1783 105.331 48.4232C104.746 49.1544 104.124 49.8603 103.466 50.5345L103.466 50.5345Z" fill="#B79300"/>
<path d="M85.1784 58.1519C85.2144 57.9057 85.2495 57.6595 85.2835 57.4133C85.333 57.4123 85.3825 57.4112 85.4319 57.4099C85.6581 57.405 85.8845 57.3976 86.1109 57.3877L86.0512 56.0551C85.9077 56.0615 85.7642 56.067 85.6207 56.0714C85.6587 55.8144 85.6957 55.5573 85.7314 55.3001C86.0431 55.2887 86.3545 55.2727 86.6654 55.2517C86.7859 55.2435 86.8781 55.2904 86.8895 55.4429L87.054 57.6423C86.9169 57.7954 86.7777 57.9476 86.6364 58.0988C86.2404 58.1221 85.8445 58.1378 85.4492 58.146C85.359 58.1484 85.2687 58.1504 85.1784 58.1519L85.1784 58.1519Z" fill="#B79300"/>
<path d="M76.2287 54.3951C76.3748 54.1805 76.519 53.9651 76.6614 53.7487C76.9008 53.8547 77.1428 53.9547 77.3874 54.049C77.5682 54.1186 77.6293 54.2375 77.5661 54.4106L77.5571 54.435C77.4337 54.7732 77.3103 55.1114 77.1868 55.4497C76.8806 55.4415 76.5721 55.4254 76.2616 55.4009L76.6144 54.5629C76.4852 54.5085 76.3566 54.4526 76.2287 54.3951L76.2287 54.3951Z" fill="#B79300"/>
<path d="M73.2333 51.8108C72.9918 51.9552 72.7478 52.0969 72.5013 52.236C72.6055 52.3099 72.7102 52.3829 72.8153 52.4552C72.4727 53.0801 72.1352 53.7081 71.8031 54.3392C72.3164 54.6709 72.8429 54.9865 73.3825 55.2829C73.8965 55.5663 74.3061 55.6698 74.5808 55.623C74.783 55.5927 74.9975 55.438 75.2233 55.1589C75.5884 54.7109 75.9446 54.257 76.2914 53.7972C76.3031 53.7796 76.3122 53.7637 76.3188 53.7495C76.3584 53.6641 76.3258 53.5978 76.2222 53.5489C75.9566 53.4236 75.6937 53.2916 75.4334 53.1535C75.2435 53.3421 75.0511 53.5288 74.8563 53.7137C74.9681 53.7747 75.0804 53.8347 75.1933 53.8936C74.9482 54.1688 74.6993 54.4413 74.4467 54.7111C74.3877 54.782 74.3236 54.8156 74.2546 54.8117C74.163 54.8151 74.023 54.7687 73.8372 54.6715C73.5234 54.508 73.2136 54.3374 72.9077 54.1605C72.9705 54.0467 73.0334 53.9329 73.0964 53.8192C73.3059 53.9369 73.5171 54.0516 73.73 54.163C73.8311 54.2161 73.9221 54.2179 74.0002 54.1726C74.4155 53.8017 74.8214 53.4233 75.217 53.037C74.9398 52.8856 74.6656 52.7273 74.3943 52.5629C74.1624 52.7214 73.9275 52.877 73.6897 53.0299C73.7977 53.0976 73.9061 53.1643 74.0151 53.2302C74.0168 53.2294 74.0185 53.2286 74.0203 53.2278C73.8892 53.3437 73.7573 53.4588 73.6245 53.5732C73.4959 53.6733 73.4015 53.6496 73.2477 53.5574C73.4508 53.1812 73.6553 52.8057 73.8612 52.4311C73.9179 52.333 73.895 52.2516 73.7935 52.1857C73.6054 52.0635 73.4186 51.9385 73.2333 51.8108L73.2333 51.8108Z" fill="#B79300"/>
<path d="M71.1676 50.2409C71.2696 50.3256 71.372 50.4097 71.4749 50.493C71.6234 50.6133 71.7729 50.7321 71.9233 50.8494C72.0737 50.9665 72.2251 51.0821 72.3775 51.1961C72.5856 51.3518 72.615 51.5341 72.4598 51.7468L71.1558 53.5336C70.8417 53.4269 70.5287 53.3144 70.2171 53.1967L71.4777 51.5775C71.5091 51.5372 71.4997 51.4959 71.4498 51.4535C71.4469 51.4511 71.444 51.4487 71.4408 51.4463C71.1203 51.196 70.8047 50.9395 70.4936 50.6773C70.7194 50.5332 70.9441 50.3877 71.1676 50.2409L71.1676 50.2409Z" fill="#B79300"/>
<path d="M82.0806 58.0857L82.2275 56.6384L82.2351 56.5631C82.2437 56.55 82.2644 56.5398 82.2973 56.5325C82.5729 56.4977 82.8468 56.458 83.1191 56.4137L83.0241 57.8686C82.713 57.9469 82.3985 58.0194 82.0806 58.0857Z" fill="#B79300"/>
<path d="M82.5831 55.2184C82.8665 55.2442 83.1508 55.2647 83.4357 55.2803C83.8138 55.3009 84.193 55.3128 84.5725 55.3164C84.8317 55.3188 84.9639 55.4481 84.9658 55.7113L84.9818 57.9223C84.6649 58.0236 84.3441 58.1194 84.0195 58.2092L84.0755 56.1564C84.077 56.1023 84.0411 56.0745 83.968 56.0721C83.4027 56.0542 82.8382 56.0174 82.2764 55.9603C82.3812 55.7137 82.4834 55.4664 82.5831 55.2184Z" fill="#B79300"/>
<path d="M68.0292 46.3313C67.7707 46.2425 67.512 46.1512 67.2532 46.0578C67.0007 46.2886 66.7481 46.5195 66.4955 46.7503C66.4702 46.764 66.4689 46.7831 66.4915 46.8075C66.8242 47.1671 67.161 47.5228 67.5025 47.8735L66.5442 48.8028C66.3544 48.608 66.1664 48.4118 65.9799 48.2146C65.7376 48.316 65.4948 48.4165 65.2514 48.5161C65.6118 48.9012 65.9785 49.2828 66.3523 49.6596C66.5947 49.6262 66.8364 49.5912 67.0774 49.5547L68.5209 48.104C68.6288 47.9956 68.6031 47.8945 68.5165 47.8079C68.1852 47.4764 67.858 47.1394 67.5344 46.7979C67.6993 46.6424 67.8643 46.4868 68.0292 46.3313L68.0292 46.3313Z" fill="#B79300"/>
<path d="M68.6015 48.4533C68.8482 48.4511 69.0941 48.4467 69.3391 48.4401C69.3012 49.1188 69.2794 49.8028 69.277 50.4931C69.2805 50.5265 69.2936 50.5311 69.3153 50.5063C69.4585 50.3462 69.6017 50.1862 69.7448 50.0261C69.6531 49.9444 69.5617 49.8621 69.4707 49.7795C69.7162 49.6568 69.9604 49.5326 70.2034 49.4068C70.2841 49.479 70.3651 49.5509 70.4464 49.6224C70.5283 49.6944 70.6105 49.7659 70.693 49.8371C70.8026 49.9316 70.8078 50.035 70.7067 50.1478C70.4862 50.3965 70.2655 50.645 70.0447 50.8934C69.998 50.9428 69.949 50.9593 69.8975 50.9427C69.6939 50.8781 69.4903 50.8114 69.2868 50.7427C69.2829 51.1423 69.2855 51.5441 69.2953 51.9482C69.0391 51.9063 68.7824 51.8614 68.5255 51.8138C68.5158 51.063 68.5298 50.3201 68.5635 49.5841C68.5634 49.5432 68.5506 49.5359 68.5255 49.5625C68.3276 49.7683 68.1296 49.974 67.9317 50.1797C68.0361 50.2784 68.1409 50.3767 68.2464 50.4745C68.04 50.6154 67.833 50.7556 67.6254 50.8951C67.384 50.6697 67.1456 50.4418 66.9101 50.2119C66.8747 50.1774 66.8785 50.1384 66.9212 50.095L67.8378 49.1635C67.8805 49.12 67.9201 49.1076 67.9565 49.1261C68.1569 49.174 68.3572 49.2203 68.5573 49.265C68.5695 48.9935 68.5843 48.723 68.6015 48.4533Z" fill="#B79300"/>
<path d="M108.117 42.9355L109.789 42.9398C110.272 42.9409 111.001 42.7155 111.481 42.3038C111.133 41.0483 108.851 40.7577 107.904 40.7749L108.117 42.9355Z" fill="#FFCC00" stroke="#B79300" stroke-width="0.8"/>
<path d="M103.623 42.9495L103.553 49.1426L110.054 48.6435C111.063 48.4732 111.228 47.9611 111.254 47.3959L111.504 43.2156C111.504 43.2156 111.545 42.5605 111.508 42.3861C111.439 42.0584 111.19 41.9761 110.995 42.1751C110.752 42.424 110.137 42.8706 109.604 42.8663L103.623 42.9495Z" fill="#FFCC00" stroke="#B79300" stroke-width="0.8"/>
<path d="M62.6828 42.9606L61.0112 42.965C60.5282 42.9661 59.7987 42.7407 59.3196 42.3289C59.6673 41.0734 61.949 40.7829 62.8963 40.8L62.6828 42.9606Z" fill="#FFCC00" stroke="#B79300" stroke-width="0.8"/>
<path d="M67.1789 42.9751L67.2489 49.1682L60.7479 48.6692C59.7385 48.4988 59.5736 47.9868 59.5477 47.4216L59.2976 43.2412C59.2976 43.2412 59.2569 42.5861 59.2937 42.4117C59.3629 42.084 59.6121 42.0017 59.8067 42.2007C60.0501 42.4497 60.6647 42.8962 61.198 42.8919L67.1789 42.9751Z" fill="#FFCC00" stroke="#B79300" stroke-width="0.8"/>
<path fill-rule="evenodd" clip-rule="evenodd" d="M85.23 12.353C84.1454 12.353 83.1326 12.9359 82.5844 13.8755C79.4326 20.6625 77.9918 20.4459 70.9645 20.6661C69.8918 20.7019 68.9264 21.2846 68.4022 22.2003C67.8658 23.128 67.8541 24.2695 68.3786 25.1973C72.4879 31.2662 71.8032 32.4019 68.5929 38.4336C68.0924 39.3613 68.1163 40.4909 68.6524 41.4068C69.1887 42.3223 70.154 42.8934 71.2146 42.9291C78.7735 42.4084 79.2897 43.9412 83.1683 49.9344C83.7404 50.8264 84.6834 51.3496 85.7442 51.3375C86.793 51.3257 87.8165 50.7667 88.3647 49.8749C91.6473 43.2368 92.8348 43.126 99.7222 43.0841C100.807 43.072 101.808 42.4895 102.356 41.5618C102.892 40.6224 102.904 39.4691 102.38 38.5295C98.1509 32.4282 99.214 31.1936 102.368 24.9358C102.845 23.9965 102.797 22.8785 102.26 21.9864C100.03 23.3678 100.03 23.3676 102.26 21.9864C101.724 21.0826 100.759 20.5237 99.7103 20.4998C92.1093 20.9992 91.4763 19.9402 87.8758 13.8517C87.3276 12.9239 86.3146 12.3531 85.23 12.3531V12.353ZM85.242 15.4097C89.1302 21.996 91.3029 24.214 99.6386 23.5566C96.2497 30.2803 94.9589 33.3282 99.6982 40.0157C92.2244 40.0765 89.2581 40.9294 85.7442 48.2811V48.2814C81.5963 41.8381 79.6104 39.2137 71.2981 39.8734C74.7746 33.3418 75.6697 30.3528 71.0599 23.7231C78.6452 23.485 81.8453 22.9546 85.242 15.4098V15.4097Z" fill="#FFCC00"/>
<path fill-rule="evenodd" clip-rule="evenodd" d="M85.3288 14.7305C87.88 21.0564 91.2692 24.4738 99.6375 23.5561C96.2486 30.2798 94.9578 33.3277 99.6972 40.0152C92.2234 40.0761 89.2571 40.929 85.7432 48.2807V48.2809C81.5952 41.8377 79.6094 39.2132 71.2971 39.873C74.7735 33.3414 75.6686 30.3523 71.0588 23.7226C78.6442 23.4846 82.256 22.5777 85.3288 14.7306V14.7305Z" stroke="#B79300" stroke-width="0.8" stroke-linecap="round" stroke-linejoin="round"/>
<path d="M83.1911 42.1177C83.1911 42.1177 83.2122 42.1071 83.2439 42.0966C83.2861 42.0755 83.3388 42.0545 83.4127 42.0124C83.5709 41.9387 83.7925 41.8229 84.0668 41.665C84.3516 41.507 84.6787 41.2965 85.0585 41.0438C85.4277 40.7912 85.8392 40.4859 86.2506 40.1174C86.6726 39.7489 87.0946 39.3278 87.506 38.854C87.9069 38.3698 88.2973 37.8223 88.6138 37.2222C88.9303 36.6116 89.1835 35.9484 89.3417 35.2535C89.3628 35.1693 89.3839 35.0746 89.3945 34.9903L89.4367 34.7272C89.4683 34.5482 89.4789 34.3692 89.5 34.1902L89.5105 34.0534V34.0218C89.5105 34.0112 89.5105 34.0218 89.5105 34.0218V34.0112V33.9902V33.9165L89.5211 33.6322C89.5316 33.4427 89.5211 33.2638 89.5211 33.0743C89.5105 32.3373 89.4367 31.5898 89.3312 30.8634C89.2257 30.137 89.0674 29.4211 88.8986 28.7368C88.5505 27.3682 88.1179 26.1259 87.7065 25.0731C87.2951 24.0203 86.8942 23.1571 86.6093 22.5675C86.4616 22.2727 86.3456 22.0411 86.2612 21.8832C86.1768 21.7253 86.1346 21.6411 86.1346 21.6411L86.4194 21.4832C86.4194 21.4832 86.4616 21.5674 86.5566 21.7253C86.641 21.8832 86.7676 22.1148 86.9153 22.4096C87.2212 22.9992 87.6326 23.8624 88.0757 24.9152C88.5188 25.968 88.983 27.2313 89.3628 28.6105C89.7426 29.9896 90.038 31.5056 90.0908 33.0532C90.0908 33.2427 90.1013 33.4533 90.1013 33.6322V33.9165V33.9902V34.0112V34.0323V34.0639L90.0908 34.2113C90.0802 34.4113 90.0697 34.6008 90.038 34.7903L89.9958 35.0746C89.9747 35.1693 89.9536 35.2641 89.9431 35.3588C89.7848 36.1168 89.5316 36.8432 89.194 37.5065C88.8564 38.1592 88.4555 38.7593 88.0335 39.2857C87.6115 39.8121 87.1684 40.2648 86.7359 40.6543C86.3034 41.0438 85.8814 41.3807 85.491 41.6544C85.1007 41.9282 84.7525 42.1493 84.4571 42.3282C84.1617 42.5072 83.9296 42.6335 83.7608 42.7178C83.6764 42.7599 83.6131 42.7914 83.5709 42.8125C83.5287 42.8336 83.4971 42.8441 83.4971 42.8441L83.4654 42.823C83.2544 42.6862 83.1384 42.4019 83.1911 42.1177H83.1911Z" fill="#FFCC00" stroke="#B79300" stroke-width="0.8" stroke-miterlimit="10" stroke-linejoin="round"/>
<path fill-rule="evenodd" clip-rule="evenodd" d="M85.23 12.3529C84.1455 12.3529 83.1327 12.9357 82.5844 13.8753C79.4326 20.6623 77.9918 20.4457 70.9645 20.6659C69.8918 20.7017 68.9264 21.2843 68.4022 22.2C67.8658 23.1278 67.8541 24.2693 68.3786 25.1971C72.4879 31.266 71.8032 32.4017 68.5929 38.4334C68.0924 39.3611 68.1163 40.4907 68.6524 41.4067C69.1887 42.3221 70.154 42.8932 71.2145 42.9289C78.7735 42.4082 79.2897 43.9411 83.1683 49.9342C83.7404 50.8263 84.7296 51.3494 85.7905 51.3373C86.8392 51.3255 87.8165 50.7665 88.3647 49.8747C91.6473 43.2366 92.8348 43.1258 99.7222 43.0839C100.807 43.0718 101.808 42.4892 102.356 41.5615C102.892 40.6221 102.904 39.4689 102.38 38.5294C98.151 32.4281 99.2141 31.1935 102.368 24.9357C102.845 23.9964 102.797 22.8784 102.261 21.9863V21.986C101.725 21.0822 100.759 20.5233 99.7103 20.4994C92.1094 20.9988 91.4763 19.9398 87.8758 13.8513C87.3276 12.9235 86.3146 12.3528 85.23 12.3528V12.3529Z" stroke="#B79300" stroke-width="0.8"/>
<path d="M83.7393 38.8447V46.0236H85.3851H87.0414V38.8447H83.7393Z" fill="#FFCC00" stroke="#B79300" stroke-width="0.8" stroke-miterlimit="10"/>
<path d="M87.0279 40.6941L83.7786 41.9048L83.8348 42.1072L87.0279 40.9152V40.6941Z" fill="#B79300"/>
<path d="M83.7615 41.0748L87.0003 39.8642V39.6431L83.7615 40.8538V41.0748Z" fill="#B79300"/>
<path d="M81.4717 17.408C81.4717 17.408 86.052 18.4377 86.2502 22.5337L81.4717 17.408Z" fill="#FFCC00"/>
<path d="M81.4717 17.408C81.4717 17.408 86.052 18.4377 86.2502 22.5337" stroke="#B79300" stroke-width="0.8" stroke-miterlimit="10"/>
<path d="M86.2508 22.5337C86.2508 22.5376 86.2508 22.5416 86.2518 22.5455C86.2412 22.535 83.34 23.1667 81.4727 17.408" fill="#B79300"/>
<path d="M86.2508 22.5337C86.2508 22.5376 86.2508 22.5416 86.2518 22.5455C86.2412 22.535 83.34 23.1667 81.4727 17.408" stroke="#B79300" stroke-width="0.8" stroke-miterlimit="10"/>
<path d="M81.4717 17.408C83.2975 19.2714 84.5587 20.9453 86.0187 22.356L86.2508 22.535" stroke="#B79300" stroke-width="0.8" stroke-miterlimit="10"/>
<path d="M84.4149 17.3134L85.396 14.6467V38.3657H83.7397V32.5366V21.1666C83.7397 19.8506 83.9718 18.5557 84.4149 17.3134H84.4149Z" fill="#FFCC00"/>
<path d="M86.3776 17.3134L85.3965 14.6467V38.3657H87.0528V32.5366V21.1666C87.0528 19.8506 86.8207 18.5557 86.3776 17.3134H86.3776Z" fill="#B79300"/>
<path d="M87.0284 44.8064L83.7393 46.0229V46.2545L87.0284 45.038V44.8064Z" fill="#B79300"/>
<path d="M87.559 46.9806H83.2335C83.0331 46.9806 82.8643 46.8121 82.8643 46.6121V46.012C82.8643 45.812 83.0331 45.6436 83.2335 45.6436H87.559C87.7594 45.6436 87.9282 45.812 87.9282 46.012V46.6121C87.9282 46.8121 87.7594 46.9806 87.559 46.9806Z" fill="#FFCC00" stroke="#B79300" stroke-width="0.8" stroke-miterlimit="10"/>
<path d="M87.0296 43.7534L83.7751 44.9689V45.2005L87.0296 43.985V43.7534Z" fill="#B79300"/>
<path d="M87.0291 42.7307L83.7717 43.9392V44.1708L87.0291 42.9623V42.7307Z" fill="#B79300"/>
<path d="M87.0287 41.7219L83.7639 42.9386V43.1597L87.0287 41.943V41.7219Z" fill="#B79300"/>
<path d="M85.3958 37.674V14.6934" stroke="#B79300" stroke-width="0.8" stroke-miterlimit="10" stroke-linecap="round" stroke-linejoin="round"/>
<path d="M90.3894 33.6657C90.354 33.676 90.3182 33.6859 90.2821 33.6956C90.2821 33.6956 90.177 29.6265 93.5645 27.3918" fill="#FFCC00"/>
<path d="M90.3894 33.6657C90.354 33.676 90.3182 33.686 90.2821 33.6956C90.2821 33.6956 90.177 29.6265 93.5645 27.3918" stroke="#B79300" stroke-width="0.8" stroke-miterlimit="10"/>
<path d="M93.5631 27.3916C93.5697 27.3873 93.5762 27.383 93.5828 27.3787C93.5861 27.4035 94.2978 32.5284 90.3879 33.6655" fill="#B79300"/>
<path d="M93.5631 27.3916C93.5697 27.3873 93.5762 27.383 93.5828 27.3787C93.5861 27.4035 94.2978 32.5284 90.3879 33.6655" stroke="#B79300" stroke-width="0.8" stroke-miterlimit="10"/>
<path d="M89.9326 19.3032C89.9326 19.3032 92.3064 25.3567 88.9832 27.4623L89.9326 19.3032Z" fill="#B79300"/>
<path d="M89.9326 19.3032C89.9326 19.3032 92.3064 25.3567 88.9832 27.4623" stroke="#B79300" stroke-width="0.8" stroke-miterlimit="10"/>
<path d="M88.9835 27.4623C88.9835 27.4623 87.1057 21.9562 89.933 19.3032L88.9835 27.4623Z" fill="#FFCC00"/>
<path d="M88.9835 27.4623C88.9835 27.4623 87.1057 21.9562 89.933 19.3032" stroke="#B79300" stroke-width="0.8" stroke-miterlimit="10"/>
<path d="M94.5283 34.2341C94.4751 34.8087 93.8879 38.9448 87.5916 39.8326L94.5283 34.2341Z" fill="#B79300"/>
<path d="M94.5283 34.2341C94.4751 34.8087 93.8879 38.9448 87.5916 39.8326" stroke="#B79300" stroke-width="0.8" stroke-miterlimit="10"/>
<path d="M85.3589 14.8279L84.4147 17.3135C83.9716 18.5558 83.7395 19.8507 83.7395 21.1667V32.5367V38.3659H85.3957H87.052V32.5367V21.1667C87.052 19.8507 86.8199 18.5558 86.3768 17.3135L85.3589 14.8279Z" stroke="#B79300" stroke-width="0.8" stroke-miterlimit="10"/>
<path d="M82.0735 28.042C84.711 30.2489 87.2594 31.9198 89.7643 33.8849" stroke="black" stroke-width="0.8" stroke-miterlimit="10"/>
<path d="M82.0735 28.042C82.0735 28.042 88.0342 28.6526 89.7539 33.7586C89.7539 33.7579 89.7331 33.7599 89.6936 33.7626" fill="#FFCC00"/>
<path d="M82.0735 28.042C82.0735 28.042 88.0342 28.6526 89.7539 33.7586C89.7539 33.7579 89.7331 33.7599 89.6936 33.7626" stroke="#B79300" stroke-width="0.8" stroke-miterlimit="10"/>
<path d="M89.6937 33.7626C89.1006 33.8035 84.2793 34.0139 82.0735 28.042L89.6937 33.7626Z" fill="#B79300"/>
<path d="M89.6937 33.7626C89.1006 33.8035 84.2793 34.0139 82.0735 28.042" stroke="#B79300" stroke-width="0.8" stroke-miterlimit="10"/>
<path d="M82.0735 28.042C84.7111 30.2489 87.2595 31.9198 89.7644 33.8849" stroke="#B79300" stroke-width="0.8" stroke-miterlimit="10"/>
<path d="M93.5731 27.3784C92.4671 29.6509 91.4403 31.757 90.2815 33.8846" stroke="#B79300" stroke-width="0.8" stroke-miterlimit="10"/>
<path d="M87.5916 39.8321C87.5916 39.8321 92.5246 35.9223 94.5238 34.2788" stroke="#B79300" stroke-width="0.8" stroke-miterlimit="10"/>
<path d="M88.5611 27.567C86.2979 26.1177 84.0462 24.7297 82.1995 22.7664" stroke="black" stroke-width="0.8" stroke-miterlimit="10"/>
<path d="M89.9326 19.3032C89.6777 22.0518 89.3324 24.8908 88.9832 27.1991V27.4623" stroke="#B79300" stroke-width="0.8" stroke-miterlimit="10"/>
<path fill-rule="evenodd" clip-rule="evenodd" d="M67.3524 42.95L63.5596 48.8874C69.2234 56.1935 76.1253 59.7912 85.3779 59.7261C94.6306 59.7912 101.533 56.1935 107.197 48.8874L103.404 42.95C100.594 49.1285 93.5377 53.6719 85.3779 53.6419C77.2183 53.6718 70.1619 49.1284 67.3524 42.95Z" fill="#FFCC00" stroke="#B79300" stroke-width="0.8" stroke-linecap="round" stroke-linejoin="round"/>
<path d="M88.3757 27.5011C87.8468 27.6407 83.71 28.1845 82.0288 22.5781L88.3757 27.5011Z" fill="#B79300"/>
<path d="M88.3757 27.5011C87.8468 27.6407 83.71 28.1845 82.0288 22.5781" stroke="#B79300" stroke-width="0.8" stroke-miterlimit="10"/>
<path d="M82.0288 22.5781C82.0288 22.5781 86.9936 23.1036 88.4259 27.4976C88.4259 27.497 88.4086 27.4987 88.3757 27.5011" fill="#FFCC00"/>
<path d="M82.0288 22.5781C82.0288 22.5781 86.9936 23.1036 88.4259 27.4976C88.4259 27.497 88.4086 27.4987 88.3757 27.5011" stroke="#B79300" stroke-width="0.8" stroke-miterlimit="10"/>
<path d="M82.0288 22.5781C84.2257 24.4773 86.3483 25.9152 88.4347 27.6063" stroke="#B79300" stroke-width="0.8" stroke-miterlimit="10"/>
<path d="M85.396 39.5484L83.75 39.9801L81.4819 38.5693L85.396 38.5952" fill="#B79300"/>
<path d="M85.396 39.5484L83.75 39.9801L81.4819 38.5693L85.396 38.5952" stroke="#B79300" stroke-width="0.8" stroke-miterlimit="10" stroke-linecap="round" stroke-linejoin="round"/>
<path d="M85.3962 39.5493L87.2107 39.981L89.0762 38.5718L85.3962 38.5961" fill="#B79300"/>
<path d="M85.3962 39.5493L87.2107 39.981L89.0762 38.5718L85.3962 38.5961" stroke="#B79300" stroke-width="0.8" stroke-miterlimit="10" stroke-linecap="round" stroke-linejoin="round"/>
<path d="M81.5261 38.5691H88.4002" stroke="black" stroke-width="0.8" stroke-miterlimit="10"/>
<path d="M85.3962 38.5953L89.0762 38.571L87.0524 37.0588L85.3962 37.4905" fill="#FFCC00"/>
<path d="M85.3962 38.5953L89.0762 38.571L87.0524 37.0588L85.3962 37.4905" stroke="#B79300" stroke-width="0.8" stroke-miterlimit="10" stroke-linecap="round" stroke-linejoin="round"/>
<path d="M85.396 38.5953L81.4819 38.5694L83.7395 37.0588L85.396 37.4905" fill="#FFCC00"/>
<path d="M85.396 38.5953L81.4819 38.5694L83.7395 37.0588L85.396 37.4905" stroke="#B79300" stroke-width="0.8" stroke-miterlimit="10" stroke-linecap="round" stroke-linejoin="round"/>
<path d="M87.5913 39.8322C87.5659 39.8259 90.0234 35.0092 94.5331 34.1682C94.5331 34.1726 94.5317 34.1951 94.528 34.2338" fill="#FFCC00"/>
<path d="M87.5913 39.8322C87.5659 39.8259 90.0234 35.0092 94.5331 34.1682C94.5331 34.1726 94.5317 34.1951 94.528 34.2338" stroke="#B79300" stroke-width="0.8" stroke-miterlimit="10"/>
<path d="M83.1911 42.1165C83.1911 42.1165 83.2122 42.106 83.2439 42.0955C83.2861 42.0744 83.3388 42.0534 83.4127 42.0113C83.5709 41.9376 83.7925 41.8218 84.0668 41.6639C84.3516 41.5059 84.6787 41.2954 85.0585 41.0427C85.4277 40.79 85.8392 40.4847 86.2506 40.1163C86.6726 39.7478 87.0946 39.3267 87.506 38.8529C87.9069 38.3686 88.2973 37.8212 88.6138 37.2211C88.9303 36.6105 89.1835 35.9472 89.3417 35.2524C89.3628 35.1682 89.3839 35.0734 89.3945 34.9892L89.4367 34.726C89.4683 34.5471 89.4789 34.3681 89.5 34.1891L89.5105 34.0522V34.0206C89.5105 34.0101 89.5105 34.0206 89.5105 34.0206V34.0101V33.989V33.9154L89.5211 33.6311C89.5316 33.4416 89.5211 33.2626 89.5211 33.0731C89.5105 32.3362 89.4367 31.5887 89.3312 30.8623C89.2257 30.1359 88.9676 29.0667 88.7988 28.3824L89.263 28.2561C89.6428 29.6352 90.038 31.5045 90.0908 33.0521C90.0908 33.2416 90.1013 33.4521 90.1013 33.6311V33.9154V33.989V34.0101V34.0312V34.0628L90.0908 34.2102C90.0802 34.4102 90.0697 34.5997 90.038 34.7892L89.9958 35.0734C89.9747 35.1682 89.9536 35.2629 89.9431 35.3577C89.7848 36.1157 89.5316 36.8421 89.194 37.5054C88.8564 38.1581 88.4555 38.7582 88.0335 39.2846C87.6115 39.811 87.1684 40.2637 86.7359 40.6532C86.3034 41.0427 85.8814 41.3796 85.491 41.6533C85.1007 41.927 84.7525 42.1481 84.4571 42.3271C84.1617 42.5061 83.9296 42.6324 83.7608 42.7166C83.6764 42.7587 83.6131 42.7903 83.5709 42.8114C83.5287 42.8324 83.4971 42.843 83.4971 42.843L83.4654 42.8219C83.2544 42.6851 83.1384 42.4008 83.1911 42.1165H83.1911Z" fill="#B79300" stroke="#B79300" stroke-width="0.8" stroke-miterlimit="10" stroke-linejoin="round"/>
<path d="M88.8771 27.1463C89.183 27.1463 89.4362 27.399 89.4362 27.7043C89.4362 28.0096 89.183 28.2623 88.8771 28.2623C88.5711 28.2623 88.3179 28.0096 88.3179 27.7043C88.3179 27.399 88.5711 27.1463 88.8771 27.1463ZM88.8771 26.9358C88.4445 26.9358 88.1069 27.2832 88.1069 27.7043C88.1069 28.136 88.4551 28.4728 88.8771 28.4728C89.2991 28.4728 89.6472 28.1254 89.6472 27.7043C89.6472 27.2832 89.3096 26.9358 88.8771 26.9358Z" fill="#B79300"/>
<path d="M88.8773 28.3783C88.508 28.3783 88.2126 28.0835 88.2126 27.715C88.2126 27.3465 88.508 27.0518 88.8773 27.0518C89.2465 27.0518 89.5419 27.3465 89.5419 27.715C89.5419 28.0835 89.2465 28.3783 88.8773 28.3783Z" fill="url(#paint2_radial_1_1715)"/>
<path d="M89.7535 33.2953C90.0806 33.2953 90.3548 33.5585 90.3548 33.8954C90.3548 34.2217 90.0911 34.4954 89.7535 34.4954C89.4265 34.4954 89.1522 34.2322 89.1522 33.8954C89.1627 33.5585 89.4265 33.2953 89.7535 33.2953ZM89.7535 33.0847C89.3104 33.0847 88.9412 33.4427 88.9412 33.8954C88.9412 34.3375 89.2999 34.706 89.7535 34.706C90.1966 34.706 90.5659 34.3481 90.5659 33.8954C90.5659 33.4427 90.2072 33.0847 89.7535 33.0847Z" fill="#B79300"/>
<path d="M89.7532 34.5904C89.3629 34.5904 89.0464 34.2746 89.0464 33.885C89.0464 33.4955 89.3629 33.1797 89.7532 33.1797C90.1436 33.1797 90.4601 33.4955 90.4601 33.885C90.4601 34.2746 90.1436 34.5904 89.7532 34.5904Z" fill="url(#paint3_radial_1_1715)"/>
<path d="M87.4948 57.2227C87.7074 57.2012 87.9198 57.1773 88.132 57.1511C88.4357 57.1135 88.5542 56.9853 88.475 56.6949C88.4054 56.4397 88.3368 56.1843 88.2692 55.9287C88.2576 55.8915 88.2302 55.8756 88.187 55.8808C87.9748 55.906 87.7623 55.9288 87.5495 55.9493C87.6431 55.6831 87.7333 55.4165 87.8202 55.1495C88.1219 55.1167 88.4228 55.079 88.7227 55.0361C88.8081 55.0239 88.8681 55.0307 88.9029 55.0572C88.9392 55.0817 88.9701 55.1377 88.9957 55.2254C89.2196 55.9854 89.4529 56.7431 89.6957 57.4983C89.4358 57.6493 89.1722 57.7966 88.9051 57.9402C88.8091 57.6669 88.7148 57.3931 88.6221 57.1189C88.5194 57.3923 88.4129 57.6652 88.3027 57.9375C87.955 57.98 87.607 58.0162 87.2588 58.0464C87.3401 57.7722 87.4188 57.4976 87.4948 57.2227Z" fill="#B79300"/>
<path d="M78.7475 53.8012C78.4948 53.856 78.2391 53.9052 77.9805 53.9482C77.8669 54.2696 77.7532 54.591 77.6395 54.9123C77.6238 54.9362 77.6313 54.9536 77.6623 54.9643C78.118 55.1223 78.5802 55.2619 79.0475 55.3843L78.7092 56.6702C78.4387 56.5991 78.1695 56.5226 77.9018 56.4404C77.7388 56.6464 77.5727 56.8508 77.4033 57.0533C77.9348 57.2246 78.4715 57.3743 79.0119 57.5036C79.2063 57.3497 79.3971 57.1931 79.5842 57.0342L80.0161 55.04C80.0484 54.8909 79.9748 54.8205 79.8595 54.7945C79.4176 54.6949 78.9805 54.58 78.5494 54.4489C78.6155 54.233 78.6815 54.0171 78.7475 53.8012Z" fill="#B79300"/>
<path d="M97.3033 52.4167C97.3565 52.1791 97.4051 51.9419 97.4492 51.7052C98.0916 51.8997 98.7538 52.0658 99.4324 52.2036C99.466 52.2068 99.4732 52.1948 99.4531 52.1687C99.3243 51.9972 99.1955 51.8256 99.0668 51.6541C98.969 51.7272 98.8707 51.7995 98.7719 51.8711C98.7012 51.607 98.6275 51.3442 98.5508 51.0828C98.636 51.0195 98.7207 50.9554 98.8051 50.8908C98.89 50.8257 98.9746 50.7599 99.0587 50.6935C99.1704 50.6054 99.2721 50.6199 99.3645 50.74C99.5683 51.0025 99.7719 51.265 99.9753 51.5277C100.015 51.5826 100.022 51.6338 99.9962 51.6813C99.894 51.8691 99.7887 52.0562 99.6803 52.2425C100.073 52.3235 100.472 52.3951 100.876 52.4575C100.784 52.7032 100.687 52.9488 100.586 53.1942C99.8357 53.0656 99.1027 52.9051 98.391 52.7122C98.3511 52.7035 98.3411 52.7143 98.3616 52.7445C98.5189 52.9819 98.6761 53.2193 98.8333 53.4567C98.9549 53.3755 99.0758 53.2931 99.1959 53.2097C99.2892 53.441 99.381 53.673 99.4713 53.9058C99.1901 54.098 98.9048 54.2845 98.6153 54.4652C98.5718 54.4923 98.534 54.4799 98.502 54.4284L97.8136 53.3223C97.7815 53.2707 97.7788 53.2295 97.8055 53.1986C97.8997 53.0154 97.9907 52.8318 98.0785 52.6479C97.8171 52.5753 97.5586 52.4982 97.3033 52.4167L97.3033 52.4167Z" fill="#B79300"/>
<path d="M93.206 56.9984L92.777 55.6126L92.7546 55.5405C92.7573 55.5251 92.7724 55.5078 92.7998 55.4883C93.0392 55.3493 93.2752 55.2064 93.5074 55.0596L93.9901 56.4303C93.7338 56.624 93.4723 56.8134 93.206 56.9984Z" fill="#B79300"/>
<path d="M92.5515 54.1721C92.8212 54.0862 93.0888 53.995 93.3542 53.8984C93.7065 53.7702 94.0548 53.6323 94.3987 53.4846C94.6333 53.3837 94.8048 53.448 94.9134 53.6879L95.8253 55.7008C95.5719 55.922 95.3122 56.1384 95.0467 56.35L94.2827 54.4497C94.2626 54.3997 94.2188 54.3884 94.1512 54.415C93.6284 54.6214 93.0972 54.8067 92.5593 54.9719C92.5594 54.7049 92.5568 54.4383 92.5515 54.1721Z" fill="#B79300"/>
<path d="M89.9939 57.7708L89.7424 56.3389L89.7293 56.2644C89.7339 56.2495 89.7511 56.2341 89.7808 56.2182C90.0361 56.1102 90.2888 55.9984 90.5386 55.883L90.8385 57.3071C90.561 57.4661 90.2794 57.6206 89.9939 57.7708Z" fill="#B79300"/>
<path d="M89.7009 54.8781C89.9817 54.8268 90.2613 54.7708 90.5394 54.7098C90.9086 54.6289 91.2752 54.5394 91.6388 54.4408C91.887 54.3735 92.0482 54.4616 92.1218 54.7138L92.7401 56.8317C92.461 57.0152 92.1769 57.1939 91.8881 57.3677L91.3893 55.3808C91.3762 55.3285 91.3342 55.3113 91.2635 55.3287C90.716 55.4627 90.163 55.5776 89.6062 55.6744C89.6402 55.4088 89.6717 55.1434 89.7009 54.8781Z" fill="#B79300"/>
<path d="M99.6962 50.1722C99.8036 50.4166 99.9088 50.6623 100.012 50.9093C100.351 50.6279 100.682 50.337 101.006 50.0375C101.023 50.0219 101.039 50.0064 101.056 49.9908C101.101 49.9493 101.143 49.9493 101.182 49.9913L101.712 50.5549C101.858 50.7099 101.977 50.8317 102.064 50.9131C101.684 51.268 101.294 51.612 100.894 51.944C100.972 52.1876 101.047 52.4325 101.119 52.6786C101.864 52.0757 102.574 51.4328 103.248 50.7566C103.16 50.5091 103.069 50.263 102.975 50.0186C102.858 50.1396 102.739 50.2596 102.619 50.3785C102.314 50.6804 102.623 50.1873 102.391 49.9563L101.376 48.9477C101.262 48.8345 101.134 48.8498 101.045 48.9371C100.61 49.366 100.16 49.7785 99.6962 50.1722L99.6962 50.1722Z" fill="#B79300"/>
<path d="M103.466 50.5345C103.378 50.2954 103.287 50.0578 103.193 49.8217C103.556 49.441 103.907 49.0503 104.247 48.6507C103.982 48.7014 103.576 48.7119 103.105 48.7312C102.975 48.7343 102.727 48.7165 102.377 48.67C102.264 48.7912 102.15 48.9114 102.035 49.0305C101.937 48.763 101.836 48.4974 101.732 48.2339C101.886 48.07 102.038 47.904 102.188 47.7361C102.223 47.697 102.273 47.6923 102.338 47.7221C102.624 47.8459 102.911 47.9133 103.198 47.9219C103.353 47.9246 103.574 47.9126 103.856 47.8813C103.916 47.8777 103.919 47.854 103.867 47.8108L103.441 47.4596C103.377 47.5367 103.313 47.6134 103.248 47.6898C103.121 47.4436 102.991 47.1994 102.859 46.957C102.997 46.7913 103.132 46.624 103.266 46.4552C103.358 46.3386 103.463 46.327 103.581 46.4224C103.828 46.6265 104.075 46.8308 104.322 47.0354C104.256 47.3084 104.186 47.5819 104.111 47.8558C104.403 47.8242 104.736 47.7806 105.078 47.6941C105.165 47.9353 105.249 48.1783 105.331 48.4232C104.746 49.1544 104.124 49.8603 103.466 50.5345L103.466 50.5345Z" fill="#B79300"/>
<path d="M85.1784 58.1519C85.2144 57.9057 85.2495 57.6595 85.2835 57.4133C85.333 57.4123 85.3825 57.4112 85.4319 57.4099C85.6581 57.405 85.8845 57.3976 86.1109 57.3877L86.0512 56.0551C85.9077 56.0615 85.7642 56.067 85.6207 56.0714C85.6587 55.8144 85.6957 55.5573 85.7314 55.3001C86.0431 55.2887 86.3545 55.2727 86.6654 55.2517C86.7859 55.2435 86.8781 55.2904 86.8895 55.4429L87.054 57.6423C86.9169 57.7954 86.7777 57.9476 86.6364 58.0988C86.2404 58.1221 85.8445 58.1378 85.4492 58.146C85.359 58.1484 85.2687 58.1504 85.1784 58.1519L85.1784 58.1519Z" fill="#B79300"/>
<path d="M76.2287 54.3951C76.3748 54.1805 76.519 53.9651 76.6614 53.7487C76.9008 53.8547 77.1428 53.9547 77.3874 54.049C77.5682 54.1186 77.6293 54.2375 77.5661 54.4106L77.5571 54.435C77.4337 54.7732 77.3103 55.1114 77.1868 55.4497C76.8806 55.4415 76.5721 55.4254 76.2616 55.4009L76.6144 54.5629C76.4852 54.5085 76.3566 54.4526 76.2287 54.3951L76.2287 54.3951Z" fill="#B79300"/>
<path d="M73.2333 51.8108C72.9918 51.9552 72.7478 52.0969 72.5013 52.236C72.6055 52.3099 72.7102 52.3829 72.8153 52.4552C72.4727 53.0801 72.1352 53.7081 71.8031 54.3392C72.3164 54.6709 72.8429 54.9865 73.3825 55.2829C73.8965 55.5663 74.3061 55.6698 74.5808 55.623C74.783 55.5927 74.9975 55.438 75.2233 55.1589C75.5884 54.7109 75.9446 54.257 76.2914 53.7972C76.3031 53.7796 76.3122 53.7637 76.3188 53.7495C76.3584 53.6641 76.3258 53.5978 76.2222 53.5489C75.9566 53.4236 75.6937 53.2916 75.4334 53.1535C75.2435 53.3421 75.0511 53.5288 74.8563 53.7137C74.9681 53.7747 75.0804 53.8347 75.1933 53.8936C74.9482 54.1688 74.6993 54.4413 74.4467 54.7111C74.3877 54.782 74.3236 54.8156 74.2546 54.8117C74.163 54.8151 74.023 54.7687 73.8372 54.6715C73.5234 54.508 73.2136 54.3374 72.9077 54.1605C72.9705 54.0467 73.0334 53.9329 73.0964 53.8192C73.3059 53.9369 73.5171 54.0516 73.73 54.163C73.8311 54.2161 73.9221 54.2179 74.0002 54.1726C74.4155 53.8017 74.8214 53.4233 75.217 53.037C74.9398 52.8856 74.6656 52.7273 74.3943 52.5629C74.1624 52.7214 73.9275 52.877 73.6897 53.0299C73.7977 53.0976 73.9061 53.1643 74.0151 53.2302C74.0168 53.2294 74.0185 53.2286 74.0203 53.2278C73.8892 53.3437 73.7573 53.4588 73.6245 53.5732C73.4959 53.6733 73.4015 53.6496 73.2477 53.5574C73.4508 53.1812 73.6553 52.8057 73.8612 52.4311C73.9179 52.333 73.895 52.2516 73.7935 52.1857C73.6054 52.0635 73.4186 51.9385 73.2333 51.8108L73.2333 51.8108Z" fill="#B79300"/>
<path d="M71.1676 50.2409C71.2696 50.3256 71.372 50.4097 71.4749 50.493C71.6234 50.6133 71.7729 50.7321 71.9233 50.8494C72.0737 50.9665 72.2251 51.0821 72.3775 51.1961C72.5856 51.3518 72.615 51.5341 72.4598 51.7468L71.1558 53.5336C70.8417 53.4269 70.5287 53.3144 70.2171 53.1967L71.4777 51.5775C71.5091 51.5372 71.4997 51.4959 71.4498 51.4535C71.4469 51.4511 71.444 51.4487 71.4408 51.4463C71.1203 51.196 70.8047 50.9395 70.4936 50.6773C70.7194 50.5332 70.9441 50.3877 71.1676 50.2409L71.1676 50.2409Z" fill="#B79300"/>
<path d="M82.0806 58.0857L82.2275 56.6384L82.2351 56.5631C82.2437 56.55 82.2644 56.5398 82.2973 56.5325C82.5729 56.4977 82.8468 56.458 83.1191 56.4137L83.0241 57.8686C82.713 57.9469 82.3985 58.0194 82.0806 58.0857Z" fill="#B79300"/>
<path d="M82.5831 55.2184C82.8665 55.2442 83.1508 55.2647 83.4357 55.2803C83.8138 55.3009 84.193 55.3128 84.5725 55.3164C84.8317 55.3188 84.9639 55.4481 84.9658 55.7113L84.9818 57.9223C84.6649 58.0236 84.3441 58.1194 84.0195 58.2092L84.0755 56.1564C84.077 56.1023 84.0411 56.0745 83.968 56.0721C83.4027 56.0542 82.8382 56.0174 82.2764 55.9603C82.3812 55.7137 82.4834 55.4664 82.5831 55.2184Z" fill="#B79300"/>
<path d="M68.0292 46.3313C67.7707 46.2425 67.512 46.1512 67.2532 46.0578C67.0007 46.2886 66.7481 46.5195 66.4955 46.7503C66.4702 46.764 66.4689 46.7831 66.4915 46.8075C66.8242 47.1671 67.161 47.5228 67.5025 47.8735L66.5442 48.8028C66.3544 48.608 66.1664 48.4118 65.9799 48.2146C65.7376 48.316 65.4948 48.4165 65.2514 48.5161C65.6118 48.9012 65.9785 49.2828 66.3523 49.6596C66.5947 49.6262 66.8364 49.5912 67.0774 49.5547L68.5209 48.104C68.6288 47.9956 68.6031 47.8945 68.5165 47.8079C68.1852 47.4764 67.858 47.1394 67.5344 46.7979C67.6993 46.6424 67.8643 46.4868 68.0292 46.3313L68.0292 46.3313Z" fill="#B79300"/>
<path d="M68.6015 48.4533C68.8482 48.4511 69.0941 48.4467 69.3391 48.4401C69.3012 49.1188 69.2794 49.8028 69.277 50.4931C69.2805 50.5265 69.2936 50.5311 69.3153 50.5063C69.4585 50.3462 69.6017 50.1862 69.7448 50.0261C69.6531 49.9444 69.5617 49.8621 69.4707 49.7795C69.7162 49.6568 69.9604 49.5326 70.2034 49.4068C70.2841 49.479 70.3651 49.5509 70.4464 49.6224C70.5283 49.6944 70.6105 49.7659 70.693 49.8371C70.8026 49.9316 70.8078 50.035 70.7067 50.1478C70.4862 50.3965 70.2655 50.645 70.0447 50.8934C69.998 50.9428 69.949 50.9593 69.8975 50.9427C69.6939 50.8781 69.4903 50.8114 69.2868 50.7427C69.2829 51.1423 69.2855 51.5441 69.2953 51.9482C69.0391 51.9063 68.7824 51.8614 68.5255 51.8138C68.5158 51.063 68.5298 50.3201 68.5635 49.5841C68.5634 49.5432 68.5506 49.5359 68.5255 49.5625C68.3276 49.7683 68.1296 49.974 67.9317 50.1797C68.0361 50.2784 68.1409 50.3767 68.2464 50.4745C68.04 50.6154 67.833 50.7556 67.6254 50.8951C67.384 50.6697 67.1456 50.4418 66.9101 50.2119C66.8747 50.1774 66.8785 50.1384 66.9212 50.095L67.8378 49.1635C67.8805 49.12 67.9201 49.1076 67.9565 49.1261C68.1569 49.174 68.3572 49.2203 68.5573 49.265C68.5695 48.9935 68.5843 48.723 68.6015 48.4533Z" fill="#B79300"/>
</g>
<defs>
<radialGradient id="paint0_radial_1_1715" cx="0" cy="0" r="1" gradientUnits="userSpaceOnUse" gradientTransform="translate(88.4535 27.4777) rotate(84.7245) scale(1.51552 1.63211)">
<stop stop-color="#FFCC00"/>
<stop offset="1" stop-color="#B79300"/>
</radialGradient>
<radialGradient id="paint1_radial_1_1715" cx="0" cy="0" r="1" gradientUnits="userSpaceOnUse" gradientTransform="translate(89.7185 33.6578) rotate(95.7868) scale(1.04082 1.20269)">
<stop stop-color="#FFCC00"/>
<stop offset="1" stop-color="#B79300"/>
</radialGradient>
<radialGradient id="paint2_radial_1_1715" cx="0" cy="0" r="1" gradientUnits="userSpaceOnUse" gradientTransform="translate(88.4535 27.4777) rotate(84.7245) scale(1.51552 1.63211)">
<stop stop-color="#FFCC00"/>
<stop offset="1" stop-color="#B79300"/>
</radialGradient>
<radialGradient id="paint3_radial_1_1715" cx="0" cy="0" r="1" gradientUnits="userSpaceOnUse" gradientTransform="translate(89.7185 33.6578) rotate(95.7868) scale(1.04082 1.20269)">
<stop stop-color="#FFCC00"/>
<stop offset="1" stop-color="#B79300"/>
</radialGradient>
<clipPath id="clip0_1_1715">
<rect width="52.8" height="48" fill="white" transform="translate(59 12)"/>
</clipPath>
</defs>
</svg>
